<?xml version="1.0" encoding="UTF-8"?>
<svg id="Capa_2" data-name="Capa 2" xmlns="http://www.w3.org/2000/svg" xmlns:xlink="http://www.w3.org/1999/xlink" viewBox="0 0 1572.89 2000">
  <defs>
    <style>
      .cls-1 {
        fill: none;
      }

      .cls-2 {
        fill: url(#Degradado_sin_nombre_8098);
      }

      .cls-3 {
        fill: #95d2ec;
      }

      .cls-4 {
        opacity: .35;
      }

      .cls-5 {
        clip-path: url(#clippath);
      }
    </style>
    <clipPath id="clippath">
      <rect class="cls-1" y="919.15" width="1400" height="350"/>
    </clipPath>
    <linearGradient id="Degradado_sin_nombre_8098" data-name="Degradado sin nombre 8098" x1="4.67" y1="1094.15" x2="1404.67" y2="1094.15" gradientUnits="userSpaceOnUse">
      <stop offset=".12" stop-color="#274a96"/>
      <stop offset=".3" stop-color="#264892" stop-opacity=".98"/>
      <stop offset=".44" stop-color="#234388" stop-opacity=".91"/>
      <stop offset=".57" stop-color="#1f3b77" stop-opacity=".8"/>
      <stop offset=".7" stop-color="#182f60" stop-opacity=".64"/>
      <stop offset=".81" stop-color="#102041" stop-opacity=".44"/>
      <stop offset=".93" stop-color="#070d1c" stop-opacity=".19"/>
      <stop offset="1" stop-color="#000" stop-opacity="0"/>
    </linearGradient>
  </defs>
  <g id="Capa_1-2" data-name="Capa 1">
    <g class="cls-5">
      <image width="1333" height="2000" transform="translate(239.89)" xlink:href="../../../../../Downloads/20875.jpg"/>
      <rect class="cls-2" x="4.67" y="919.15" width="1400" height="350"/>
      <g class="cls-4">
        <path class="cls-3" d="M348.13,1382.28c-11.99,0-23.97-3.08-34.66-9.26l-182.47-105.35c-21.38-12.34-34.66-35.35-34.66-60.03v-210.7c0-24.69,13.28-47.69,34.66-60.03l182.47-105.35c21.38-12.34,47.94-12.34,69.32,0l182.47,105.35c21.38,12.34,34.66,35.35,34.66,60.03v210.7c0,24.69-13.28,47.69-34.66,60.03l-182.47,105.35c-10.69,6.17-22.67,9.26-34.66,9.26ZM348.13,832.29c-10.26,0-20.51,2.64-29.66,7.92l-182.47,105.35c-18.29,10.56-29.66,30.25-29.66,51.37v210.7c0,21.12,11.36,40.81,29.66,51.37l182.47,105.35c18.29,10.56,41.02,10.56,59.32,0l182.47-105.35c18.29-10.56,29.66-30.25,29.66-51.37v-210.7c0-21.12-11.36-40.81-29.66-51.37l-182.47-105.35c-9.15-5.28-19.4-7.92-29.66-7.92Z"/>
        <path class="cls-3" d="M348.13,1340.88c-10.31,0-20.62-2.65-29.82-7.96l-155.01-89.49c-18.39-10.62-29.82-30.41-29.82-51.65v-178.99c0-21.24,11.43-41.03,29.82-51.65l155.01-89.49c18.39-10.62,41.25-10.62,59.64,0l155.01,89.49c18.39,10.62,29.82,30.41,29.82,51.65v178.99c0,21.24-11.43,41.03-29.82,51.65l-155.01,89.49c-9.2,5.31-19.51,7.96-29.82,7.96ZM348.14,873.68c-8.58,0-17.16,2.21-24.82,6.63l-155.01,89.49c-15.31,8.84-24.82,25.31-24.82,42.99v178.99c0,17.68,9.51,34.15,24.82,42.99l155.01,89.49c15.31,8.84,34.33,8.84,49.64,0l155.01-89.49c15.31-8.84,24.82-25.31,24.82-42.99v-178.99c0-17.68-9.51-34.15-24.82-42.99l-155.01-89.49c-7.65-4.42-16.24-6.63-24.82-6.63Z"/>
        <g id="_021---Cyber-Security" data-name="021---Cyber-Security">
          <path id="Shape" class="cls-3" d="M322.02,1151.51h52.23c8.65,0,15.67-7.02,15.67-15.67v-47.01c0-8.65-7.02-15.67-15.67-15.67v-10.45c0-14.42-11.69-26.11-26.11-26.11s-26.11,11.69-26.11,26.11v10.45c-8.65,0-15.67,7.02-15.67,15.67v47.01c0,8.65,7.02,15.67,15.67,15.67ZM332.47,1062.73c0-8.65,7.02-15.67,15.67-15.67s15.67,7.02,15.67,15.67v10.45h-31.34v-10.45ZM316.8,1088.84c0-2.88,2.34-5.22,5.22-5.22h52.23c2.88,0,5.22,2.34,5.22,5.22v47.01c0,2.88-2.34,5.22-5.22,5.22h-52.23c-2.88,0-5.22-2.34-5.22-5.22v-47.01Z"/>
          <path id="Shape-2" data-name="Shape" class="cls-3" d="M345.39,1118.68v.5c0,1.51,1.23,2.74,2.74,2.74s2.74-1.23,2.74-2.74v-.5c3.78-1.34,6.04-5.2,5.37-9.15-.68-3.95-4.1-6.84-8.11-6.84s-7.43,2.89-8.11,6.84,1.59,7.81,5.37,9.15Z"/>
          <path id="Shape-3" data-name="Shape" class="cls-3" d="M259.35,1099.28c0,49.04,39.75,88.79,88.79,88.79s88.79-39.75,88.79-88.79-39.75-88.79-88.79-88.79c-49.01.05-88.73,39.77-88.79,88.79ZM348.13,1020.94c43.27,0,78.34,35.08,78.34,78.34s-35.08,78.34-78.34,78.34-78.34-35.08-78.34-78.34c.05-43.25,35.1-78.29,78.34-78.34Z"/>
          <path id="Shape-4" data-name="Shape" class="cls-3" d="M452.59,1214.19c-9.5.04-17.78,6.47-20.15,15.67h-37.3v-31.57c11.68-5.5,22.29-13.02,31.34-22.22,1.34-1.33,1.86-3.27,1.36-5.09s-1.93-3.23-3.76-3.69c-1.83-.46-3.76.1-5.06,1.46-8.87,9.07-19.39,16.34-31.01,21.44-.7.28-1.33.71-1.85,1.26-.06.06-.09.15-.15.22-.38.42-.69.91-.91,1.44-.1.33-.17.67-.2,1.01-.1.3-.17.6-.2.91v34.84c0,5.77,4.68,10.45,10.45,10.45h37.3c2.73,10.49,13.04,17.13,23.72,15.29s18.17-11.55,17.24-22.34c-.93-10.8-9.97-19.08-20.81-19.06h0ZM452.59,1245.52c-5.77,0-10.45-4.68-10.45-10.45s4.68-10.45,10.45-10.45,10.45,4.68,10.45,10.45-4.68,10.45-10.45,10.45Z"/>
          <path id="Shape-5" data-name="Shape" class="cls-3" d="M232.49,1156.74h25.24s.08-.03.13-.03c.52-.02,1.03-.13,1.52-.31.24-.08.48-.18.71-.29.06-.03.13-.04.18-.08s.15-.15.23-.2c.47-.29.89-.66,1.24-1.1.06-.08.12-.16.17-.25.34-.48.59-1.01.75-1.57,0-.08.03-.16.05-.24.13-.38.21-.77.24-1.16-.03-.2-.07-.39-.12-.58,0-.07,0-.13-.04-.2-.09-.61-.29-1.2-.59-1.74l-.03-.08c-5.36-9.24-9.17-19.3-11.29-29.77-.58-2.83-3.34-4.65-6.16-4.07s-4.65,3.34-4.07,6.16c1.76,8.66,4.56,17.08,8.36,25.07h-16.51c-2.63-10.19-12.42-16.83-22.86-15.5-10.44,1.33-18.26,10.2-18.26,20.72s7.82,19.4,18.26,20.72,20.23-5.32,22.86-15.5h0ZM212.34,1161.96c-5.77,0-10.45-4.68-10.45-10.45s4.68-10.45,10.45-10.45,10.45,4.68,10.45,10.45-4.68,10.45-10.45,10.45Z"/>
          <path id="Shape-6" data-name="Shape" class="cls-3" d="M191.45,1047.06c-.01,10.51,7.79,19.38,18.22,20.71,10.42,1.33,20.2-5.31,22.82-15.49h25.38c.52-.03,1.02-.13,1.51-.31.23-.07.45-.16.67-.27.28-.15.54-.32.78-.52.44-.33.82-.74,1.13-1.2.07-.1.16-.17.22-.28,6.7-11.62,15.68-21.76,26.42-29.81,1.49-1.12,2.27-2.95,2.05-4.8-.22-1.85-1.42-3.45-3.13-4.18s-3.69-.49-5.19.62c-10.99,8.28-20.32,18.56-27.51,30.29h-22.33c-2.62-10.18-12.4-16.81-22.82-15.49s-18.23,10.2-18.22,20.71h0ZM222.79,1047.06c0,5.77-4.68,10.45-10.45,10.45s-10.45-4.68-10.45-10.45,4.68-10.45,10.45-10.45c2.77,0,5.43,1.1,7.39,3.06s3.06,4.62,3.06,7.39Z"/>
          <path id="Shape-7" data-name="Shape" class="cls-3" d="M483.93,1130.62c-9.5.04-17.78,6.47-20.15,15.67h-16.52c3.8-7.98,6.6-16.4,8.36-25.07.58-2.83-1.25-5.59-4.08-6.17s-5.59,1.25-6.17,4.08c-2.12,10.47-5.93,20.53-11.28,29.77v.07c-.31.55-.52,1.16-.61,1.79,0,.06,0,.11-.04.17-.05.19-.1.39-.13.59.03.41.11.82.24,1.21,0,.07,0,.14.04.2.16.56.42,1.09.77,1.57.05.08.09.16.15.23.35.44.78.81,1.25,1.11.08.06.14.15.22.2s.13.05.18.08c.23.12.47.22.72.3.49.17.99.28,1.51.3.05,0,.08.03.13.03h25.24c2.73,10.49,13.04,17.14,23.72,15.3s18.17-11.55,17.24-22.34-9.97-19.08-20.81-19.06h0ZM483.93,1161.96c-5.77,0-10.45-4.68-10.45-10.45s4.68-10.45,10.45-10.45,10.45,4.68,10.45,10.45-4.68,10.45-10.45,10.45Z"/>
          <path id="Shape-8" data-name="Shape" class="cls-3" d="M311.57,1195.11v-.09c-.03-.29-.09-.58-.17-.87-.04-.35-.11-.7-.21-1.04-.22-.52-.52-1-.9-1.42-.07-.08-.1-.17-.17-.25-.52-.55-1.15-.98-1.85-1.26-13.67-6.03-25.82-15.05-35.55-26.4-1.2-1.47-3.1-2.18-4.97-1.85-1.87.33-3.41,1.65-4.03,3.45s-.21,3.78,1.06,5.19c10.04,11.69,22.42,21.15,36.34,27.78v31.5h-37.3c-2.63-10.19-12.42-16.83-22.86-15.5-10.44,1.33-18.26,10.2-18.26,20.72s7.82,19.4,18.26,20.72,20.23-5.32,22.86-15.5h37.3c5.77,0,10.45-4.68,10.45-10.45v-34.75ZM243.68,1245.52c-5.77,0-10.45-4.68-10.45-10.45s4.68-10.45,10.45-10.45,10.45,4.68,10.45,10.45-4.68,10.45-10.45,10.45Z"/>
          <path id="Path" class="cls-3" d="M367.98,1196.53c-13.1,2.63-26.59,2.63-39.69,0-1.85-.42-3.78.19-5.05,1.6s-1.67,3.39-1.06,5.19,2.15,3.11,4.02,3.45c5.51,1.07,11.1,1.72,16.71,1.94v42.04c0,2.88,2.34,5.22,5.22,5.22s5.22-2.34,5.22-5.22v-42.04c5.61-.22,11.2-.87,16.71-1.94,2.76-.63,4.52-3.36,3.95-6.14s-3.25-4.6-6.04-4.1h0Z"/>
          <path id="Shape-9" data-name="Shape" class="cls-3" d="M301.13,958.27h-37.3c-2.63-10.19-12.42-16.83-22.86-15.5-10.44,1.33-18.26,10.2-18.26,20.72s7.82,19.4,18.26,20.72c10.44,1.33,20.23-5.32,22.86-15.5h37.3v34.85c0,.21.1.41.13.62.05.54.19,1.07.41,1.57.22.47.51.89.86,1.27.18.19.37.36.57.52.26.21.53.39.82.55.24.13.49.25.75.34.37.12.76.2,1.15.23.17.05.35.08.52.11.75-.02,1.48-.19,2.16-.52,6.36-2.76,13-4.84,19.79-6.22,2.83-.58,4.65-3.34,4.08-6.17s-3.34-4.65-6.17-4.08c-4.96,1.02-9.85,2.38-14.62,4.07v-27.16c0-5.77-4.68-10.45-10.45-10.45h0ZM243.68,973.94c-5.77,0-10.45-4.68-10.45-10.45s4.68-10.45,10.45-10.45,10.45,4.68,10.45,10.45c0,2.77-1.1,5.43-3.06,7.39-1.96,1.96-4.62,3.06-7.39,3.06Z"/>
          <path id="Shape-10" data-name="Shape" class="cls-3" d="M432.44,968.71c2.63,10.19,12.42,16.83,22.86,15.5,10.44-1.33,18.26-10.2,18.26-20.72s-7.82-19.4-18.26-20.72c-10.44-1.33-20.23,5.32-22.86,15.5h-37.3c-5.77,0-10.45,4.68-10.45,10.45v34.83c.03.31.09.61.18.91.03.34.1.68.2,1.01.22.53.53,1.01.91,1.44.06.07.09.16.15.22.52.55,1.15.98,1.85,1.26,11.61,5.09,22.14,12.36,31.01,21.41,1.28,1.42,3.24,2.03,5.1,1.59s3.33-1.88,3.83-3.73c.5-1.85-.06-3.82-1.45-5.14-9.05-9.2-19.66-16.73-31.34-22.22v-31.57h37.3ZM452.59,953.05c5.77,0,10.45,4.68,10.45,10.45s-4.68,10.45-10.45,10.45-10.45-4.68-10.45-10.45,4.68-10.45,10.45-10.45Z"/>
          <path id="Path-2" data-name="Path" class="cls-3" d="M348.13,942.6c-2.88,0-5.22,2.34-5.22,5.22v47.01c0,2.88,2.34,5.22,5.22,5.22,6.67,0,13.31.66,19.85,1.98.34.07.69.11,1.04.1,2.67-.01,4.91-2.04,5.18-4.7.27-2.66-1.51-5.09-4.13-5.64-5.51-1.07-11.1-1.72-16.71-1.94v-42.04c0-2.88-2.34-5.22-5.22-5.22Z"/>
          <path id="Shape-11" data-name="Shape" class="cls-3" d="M463.78,1052.28c2.63,10.19,12.42,16.83,22.86,15.5s18.26-10.2,18.26-20.72-7.82-19.4-18.26-20.72-20.23,5.32-22.86,15.5h-25.24c-.1,0-.18.05-.27.05-.3.03-.6.09-.89.18-.43.08-.85.23-1.24.42-.04,0-.09,0-.14.05s-.14.14-.22.2c-.48.3-.9.67-1.25,1.11-.06.07-.1.15-.15.23-.35.47-.61,1-.77,1.57,0,.07,0,.14-.04.2-.13.39-.21.8-.24,1.21.03.2.07.4.11.6,0,.06.03.11.04.17.09.63.29,1.23.61,1.79v.07c8.71,15.08,13.29,32.19,13.29,49.61,0,2.88,2.34,5.22,5.22,5.22h47.01c2.88,0,5.22-2.34,5.22-5.22s-2.34-5.22-5.22-5.22h-41.96c-.68-14.48-4.24-28.68-10.45-41.78h16.58ZM483.93,1036.61c5.77,0,10.45,4.68,10.45,10.45s-4.68,10.45-10.45,10.45-10.45-4.68-10.45-10.45,4.68-10.45,10.45-10.45Z"/>
          <path id="Path-3" data-name="Path" class="cls-3" d="M196.67,1104.51h47.01c2.88,0,5.22-2.34,5.22-5.22-.01-10.55,1.66-21.04,4.96-31.07.58-1.77.18-3.72-1.07-5.11-1.24-1.39-3.13-2.01-4.96-1.63s-3.31,1.71-3.89,3.48c-3.07,9.42-4.84,19.21-5.28,29.11h-41.99c-2.88,0-5.22,2.34-5.22,5.22s2.34,5.22,5.22,5.22Z"/>
        </g>
      </g>
    </g>
  </g>
</svg>