<?xml version="1.0" encoding="UTF-8"?>
<svg xmlns="http://www.w3.org/2000/svg" xmlns:xlink="http://www.w3.org/1999/xlink" viewBox="0 0 1801.9 871.32">
  <defs>
    <style>
      .cls-1 {
        fill: none;
      }

      .cls-2, .cls-3 {
        fill: #353e8e;
      }

      .cls-4 {
        fill: url(#linear-gradient-2);
      }

      .cls-5 {
        fill: url(#radial-gradient);
      }

      .cls-6 {
        fill: url(#linear-gradient);
      }

      .cls-7 {
        fill: #fff;
        opacity: .35;
      }

      .cls-8 {
        fill: #3472b7;
      }

      .cls-9 {
        isolation: isolate;
      }

      .cls-10 {
        fill: url(#Degradado_sin_nombre_8153);
      }

      .cls-11 {
        fill: url(#linear-gradient-3);
        mix-blend-mode: overlay;
      }

      .cls-3 {
        opacity: .75;
      }

      .cls-12 {
        clip-path: url(#clippath);
      }
    </style>
    <clipPath id="clippath">
      <rect class="cls-8" x="249.35" y="285.61" width="1400.47" height="300.1" transform="translate(1899.18 871.32) rotate(180)"/>
    </clipPath>
    <radialGradient id="radial-gradient" cx="-19744.85" cy="4980.06" fx="-19744.85" fy="4980.06" r="486.7" gradientTransform="translate(19127.43 485.1) rotate(14.55) scale(.88 .91) skewX(1.22)" gradientUnits="userSpaceOnUse">
      <stop offset="0" stop-color="#58a4d9"/>
      <stop offset=".09" stop-color="#4497d9"/>
      <stop offset=".55" stop-color="#3c6cb5"/>
      <stop offset="1" stop-color="#353e8e"/>
    </radialGradient>
    <linearGradient id="linear-gradient" x1="-19145.43" y1="4577.87" x2="-18310.48" y2="4577.87" gradientTransform="translate(20548.04 524.72) rotate(13.95)" gradientUnits="userSpaceOnUse">
      <stop offset="0" stop-color="#f4dfc0"/>
      <stop offset=".3" stop-color="#da9435"/>
      <stop offset=".55" stop-color="#da9536"/>
      <stop offset=".64" stop-color="#db993d"/>
      <stop offset=".7" stop-color="#dca049"/>
      <stop offset=".75" stop-color="#dfaa5a"/>
      <stop offset=".8" stop-color="#e2b770"/>
      <stop offset=".82" stop-color="#e4be7b"/>
      <stop offset="1" stop-color="#fff"/>
    </linearGradient>
    <linearGradient id="linear-gradient-2" x1="-18109.44" y1="6725" x2="-17217.82" y2="6725" gradientTransform="translate(20462.61 771.81) rotate(11.56) scale(1.04 .55) skewX(-5.67)" xlink:href="#linear-gradient"/>
    <linearGradient id="linear-gradient-3" x1="-20701.28" y1="4400.72" x2="-19525.29" y2="4400.72" gradientTransform="translate(20847.72 720.27) rotate(12.78) scale(.95 .91) skewX(-2.3)" gradientUnits="userSpaceOnUse">
      <stop offset="0" stop-color="#fff"/>
      <stop offset=".01" stop-color="#e2e4ef"/>
      <stop offset=".03" stop-color="#aeb1d1"/>
      <stop offset=".05" stop-color="#8288b9"/>
      <stop offset=".07" stop-color="#6067a6"/>
      <stop offset=".09" stop-color="#485099"/>
      <stop offset=".11" stop-color="#3a4290"/>
      <stop offset=".12" stop-color="#353e8e"/>
      <stop offset=".48" stop-color="#353e8e"/>
      <stop offset=".9" stop-color="#65a1d5"/>
    </linearGradient>
    <linearGradient id="Degradado_sin_nombre_8153" data-name="Degradado sin nombre 8153" x1="-1646.92" y1="419.39" x2="-819.2" y2="419.39" gradientTransform="translate(2253.62)" gradientUnits="userSpaceOnUse">
      <stop offset=".12" stop-color="#3472b7"/>
      <stop offset=".28" stop-color="#3472b7" stop-opacity=".98"/>
      <stop offset=".42" stop-color="#3472b7" stop-opacity=".93"/>
      <stop offset=".54" stop-color="#3472b7" stop-opacity=".84"/>
      <stop offset=".65" stop-color="#3472b7" stop-opacity=".71"/>
      <stop offset=".76" stop-color="#3472b7" stop-opacity=".54"/>
      <stop offset=".87" stop-color="#3472b7" stop-opacity=".33"/>
      <stop offset=".97" stop-color="#3472b7" stop-opacity=".09"/>
      <stop offset="1" stop-color="#3472b7" stop-opacity="0"/>
    </linearGradient>
  </defs>
  <g class="cls-9">
    <g id="Capa_2" data-name="Capa 2">
      <g id="Capa_1-2" data-name="Capa 1">
        <g>
          <rect class="cls-8" x="249.35" y="285.61" width="1400.47" height="300.1" transform="translate(1899.18 871.32) rotate(180)"/>
          <g class="cls-12">
            <rect class="cls-1" y="204.13" width="1640.92" height="410.23" transform="translate(1640.92 818.5) rotate(180)"/>
            <image width="1500" height="1003" transform="translate(817.67 119.76) scale(.58)" xlink:href="../../../../../Downloads/2149595841.jpg"/>
            <g>
              <path class="cls-5" d="M1719.61,211.54s-31.77,322.36-233.04,473.39c-120.55,90.45-297.76,21.88-635.51-32.9-20.98-3.4-16.33,175.54-12.55,217.9l860.71-6.39,20.4-652Z"/>
              <path class="cls-6" d="M1334.09,557.59c-290.26,44.11-464.25,4.92-560.45,156.66,797.41,490.29,1001.1-569.88,1001.1-569.88-51.84,178.82-170.78,372.23-440.65,413.23Z"/>
              <path class="cls-4" d="M1127.72,635.53c-300.51,1.2-558.94,1.51-653.27,78.13,849.06,336.63,1096.17-272.43,1096.17-272.43-47.1,95.24-163.5,193.2-442.91,194.3Z"/>
              <path class="cls-3" d="M1098.61,689.85c-321.88-43.58-539.28-44.44-662.28,49,1105.83,350.55,1192.16-255.28,1192.16-255.28-77.83,126.72-230.61,246.82-529.88,206.28Z"/>
              <path class="cls-11" d="M1801.9,32.82h0l-1.24-32.82c-1.29,67.9-31.55,271.1-322.03,479.18-226.59,162.3-797.7,228.22-1012.54,264.45l484.6,117.79c746.88-123.39,851.25-725.96,851.22-828.59Z"/>
              <path class="cls-2" d="M421.75,725.04v146.28h1281.55l8.16-414.75s-107.26,534.3-1289.7,268.47Z"/>
            </g>
            <rect class="cls-10" x="606.7" y="214.27" width="827.72" height="410.23"/>
            <g>
              <path class="cls-7" d="M424.55,395.4c-5.75,0-10.41-4.66-10.41-10.41v-33.15c-12.09-4.31-20.82-15.76-20.82-29.31,0-17.22,14.01-31.23,31.23-31.23s31.23,14.01,31.23,31.23c0,13.55-8.73,25-20.82,29.31v22.74h272.04v-22.74c-12.09-4.31-20.82-16.45-20.82-30.01,0-17.22,14.01-30.54,31.23-30.54s31.23,14.01,31.23,31.23c0,13.55-8.73,25-20.82,29.31v33.15c0,5.75-4.66,10.41-10.41,10.41h-52.74v41.64h23.43c4.31-12.09,15.76-20.82,29.31-20.82,17.22,0,31.23,14.01,31.23,31.23s-14.01,31.23-31.23,31.23c-13.55,0-25-8.73-29.31-20.82h-23.43v41.64h52.74c5.75,0,10.41,4.66,10.41,10.41v33.84c12.09,4.31,20.82,15.76,20.82,29.31,0,17.22-14.01,31.23-31.23,31.23s-31.23-14.01-31.23-31.23c0-13.55,8.73-25,20.82-29.31v-22.74h-83.97v31.23c0,5.75-4.66,10.41-10.41,10.41s-10.41-4.66-10.41-10.41v-31.23h-20.82v72.87c0,5.75-4.66,10.41-10.41,10.41s-10.41-4.66-10.41-10.41v-72.87h-20.82v31.23c0,5.75-4.66,10.41-10.41,10.41s-10.41-4.66-10.41-10.41v-31.23h-83.97v22.74c12.09,4.31,20.82,15.76,20.82,29.31,0,17.22-14.01,31.23-31.23,31.23s-31.23-14.01-31.23-31.23c0-13.55,8.73-25,20.82-29.31v-33.84c0-5.75,4.66-10.41,10.41-10.41h52.74v-41.64h-23.43c-4.31,12.09-15.76,20.82-29.31,20.82-17.22,0-31.23-14.01-31.23-31.23s14.01-31.23,31.23-31.23c13.55,0,25,8.73,29.31,20.82h23.43v-41.64h-52.74ZM612.62,457.85c5.75,0,10.41-4.66,10.41-10.41s-4.66-10.41-10.41-10.41-10.41,4.66-10.41,10.41,4.66,10.41,10.41,10.41ZM570.98,457.85c5.75,0,10.41-4.66,10.41-10.41s-4.66-10.41-10.41-10.41-10.41,4.66-10.41,10.41,4.66,10.41,10.41,10.41ZM529.34,457.85c5.75,0,10.41-4.66,10.41-10.41s-4.66-10.41-10.41-10.41-10.41,4.66-10.41,10.41,4.66,10.41,10.41,10.41Z"/>
              <path class="cls-7" d="M498.11,353.76v-31.92c0-40.18,32.69-72.87,72.87-72.87s72.87,32.69,72.87,72.87v31.92h-41.64v-31.92c0-17.25-13.98-31.23-31.23-31.23s-31.23,13.98-31.23,31.23v31.92h-41.64Z"/>
            </g>
          </g>
        </g>
      </g>
    </g>
  </g>
</svg>