<?xml version="1.0" encoding="UTF-8"?>
<svg xmlns="http://www.w3.org/2000/svg" xmlns:xlink="http://www.w3.org/1999/xlink" viewBox="0 0 1801.9 1534.04">
  <defs>
    <style>
      .cls-1 {
        fill: none;
      }

      .cls-2, .cls-3 {
        fill: #353e8e;
      }

      .cls-4 {
        fill: url(#linear-gradient-2);
      }

      .cls-5 {
        fill: url(#radial-gradient);
      }

      .cls-6 {
        fill: url(#linear-gradient);
      }

      .cls-7 {
        isolation: isolate;
      }

      .cls-8 {
        fill: url(#Degradado_sin_nombre_8098);
      }

      .cls-9 {
        fill: #274a96;
      }

      .cls-10 {
        fill: url(#linear-gradient-3);
        mix-blend-mode: overlay;
      }

      .cls-3 {
        opacity: .75;
      }

      .cls-11 {
        fill: #95d2ec;
      }

      .cls-12 {
        opacity: .35;
      }

      .cls-13 {
        clip-path: url(#clippath);
      }
    </style>
    <clipPath id="clippath">
      <rect class="cls-9" x="249.35" y="508.51" width="1400.47" height="300.1" transform="translate(1899.18 1317.11) rotate(180)"/>
    </clipPath>
    <radialGradient id="radial-gradient" cx="-19136.54" cy="5346.78" fx="-19136.54" fy="5346.78" r="486.7" gradientTransform="translate(18688.5 248.91) rotate(14.55) scale(.88 .91) skewX(1.22)" gradientUnits="userSpaceOnUse">
      <stop offset="0" stop-color="#58a4d9"/>
      <stop offset=".09" stop-color="#4497d9"/>
      <stop offset=".55" stop-color="#3c6cb5"/>
      <stop offset="1" stop-color="#353e8e"/>
    </radialGradient>
    <linearGradient id="linear-gradient" x1="-18589.73" y1="4732.78" x2="-17754.79" y2="4732.78" gradientTransform="translate(20046.08 463.3) rotate(13.95)" gradientUnits="userSpaceOnUse">
      <stop offset="0" stop-color="#f4dfc0"/>
      <stop offset=".3" stop-color="#da9435"/>
      <stop offset=".55" stop-color="#da9536"/>
      <stop offset=".64" stop-color="#db993d"/>
      <stop offset=".7" stop-color="#dca049"/>
      <stop offset=".75" stop-color="#dfaa5a"/>
      <stop offset=".8" stop-color="#e2b770"/>
      <stop offset=".82" stop-color="#e4be7b"/>
      <stop offset="1" stop-color="#fff"/>
    </linearGradient>
    <linearGradient id="linear-gradient-2" x1="-17260.43" y1="8727.35" x2="-16368.81" y2="8727.35" gradientTransform="translate(20021.12 -225.59) rotate(11.56) scale(1.04 .55) skewX(-5.67)" xlink:href="#linear-gradient"/>
    <linearGradient id="linear-gradient-3" x1="-20066.28" y1="4777.18" x2="-18890.29" y2="4777.18" gradientTransform="translate(20349.08 477.15) rotate(12.78) scale(.95 .91) skewX(-2.3)" gradientUnits="userSpaceOnUse">
      <stop offset="0" stop-color="#fff"/>
      <stop offset=".01" stop-color="#e2e4ef"/>
      <stop offset=".03" stop-color="#aeb1d1"/>
      <stop offset=".05" stop-color="#8288b9"/>
      <stop offset=".07" stop-color="#6067a6"/>
      <stop offset=".09" stop-color="#485099"/>
      <stop offset=".11" stop-color="#3a4290"/>
      <stop offset=".12" stop-color="#353e8e"/>
      <stop offset=".48" stop-color="#353e8e"/>
      <stop offset=".9" stop-color="#65a1d5"/>
    </linearGradient>
    <linearGradient id="Degradado_sin_nombre_8098" data-name="Degradado sin nombre 8098" x1="-1646.92" y1="642.28" x2="-819.2" y2="642.28" gradientTransform="translate(2253.62)" gradientUnits="userSpaceOnUse">
      <stop offset=".12" stop-color="#274a96"/>
      <stop offset=".3" stop-color="#264892" stop-opacity=".98"/>
      <stop offset=".44" stop-color="#234388" stop-opacity=".91"/>
      <stop offset=".57" stop-color="#1f3b77" stop-opacity=".8"/>
      <stop offset=".7" stop-color="#182f60" stop-opacity=".64"/>
      <stop offset=".81" stop-color="#102041" stop-opacity=".44"/>
      <stop offset=".93" stop-color="#070d1c" stop-opacity=".19"/>
      <stop offset="1" stop-color="#000" stop-opacity="0"/>
    </linearGradient>
  </defs>
  <g class="cls-7">
    <g id="Capa_2" data-name="Capa 2">
      <g id="Capa_1-2" data-name="Capa 1">
        <g>
          <rect class="cls-9" x="249.35" y="508.51" width="1400.47" height="300.1" transform="translate(1899.18 1317.11) rotate(180)"/>
          <g class="cls-13">
            <image width="841" height="1500" transform="translate(835.08) scale(1.02)" xlink:href="../../../../../Downloads/74461.jpg"/>
            <rect class="cls-1" y="427.03" width="1640.92" height="410.23" transform="translate(1640.92 1264.29) rotate(180)"/>
            <g>
              <path class="cls-5" d="M1719.61,434.44s-31.77,322.36-233.04,473.39c-120.55,90.45-297.76,21.88-635.51-32.9-20.98-3.4-16.33,175.54-12.55,217.9l860.71-6.39,20.4-652Z"/>
              <path class="cls-6" d="M1334.09,780.49c-290.26,44.11-464.25,4.92-560.45,156.66,797.41,490.29,1001.1-569.88,1001.1-569.88-51.84,178.82-170.78,372.23-440.65,413.23Z"/>
              <path class="cls-4" d="M1127.72,858.43c-300.51,1.2-558.94,1.51-653.27,78.13,849.06,336.63,1096.17-272.43,1096.17-272.43-47.1,95.24-163.5,193.2-442.91,194.3Z"/>
              <path class="cls-3" d="M1098.61,912.74c-321.88-43.58-539.28-44.44-662.28,49,1105.83,350.55,1192.16-255.28,1192.16-255.28-77.83,126.72-230.61,246.82-529.88,206.28Z"/>
              <path class="cls-10" d="M1801.9,255.72h0l-1.24-32.82c-1.29,67.9-31.55,271.1-322.03,479.18-226.59,162.3-797.7,228.22-1012.54,264.45l484.6,117.79c746.88-123.39,851.25-725.96,851.22-828.59Z"/>
              <path class="cls-2" d="M421.75,947.94v146.28h1281.55l8.16-414.75s-107.26,534.3-1289.7,268.47Z"/>
            </g>
            <rect class="cls-8" x="606.7" y="437.17" width="827.72" height="410.23"/>
            <g class="cls-12">
              <path class="cls-11" d="M552.65,585.03c-7.88-1.03-15.88-.82-23.7.61-2.5.46-5.06-.37-6.81-2.2l-6.9-7.19-15.41,6.74.73,9.93c.19,2.58-.96,5.09-3.04,6.62-6.33,4.68-11.8,10.42-16.16,16.97-1.45,2.16-3.91,3.44-6.51,3.36l-9.92-.29-6.04,15.64,7.42,6.4c1.93,1.66,2.88,4.17,2.56,6.69-1.03,7.88-.82,15.88.61,23.7.46,2.5-.37,5.05-2.2,6.81l-7.19,6.9,6.74,15.41,9.93-.73c2.59-.19,5.09.96,6.63,3.04,4.68,6.33,10.42,11.8,16.97,16.16,2.17,1.44,3.44,3.9,3.36,6.51l-.29,9.92,15.64,6.04,6.4-7.42c1.66-1.92,4.17-2.88,6.69-2.55,7.88,1.03,15.88.82,23.7-.62,2.5-.46,5.06.37,6.81,2.2l6.9,7.19,15.41-6.74-.73-9.93c-.19-2.58.96-5.08,3.04-6.62,6.33-4.68,11.8-10.42,16.16-16.97,1.45-2.16,3.91-3.44,6.51-3.36l9.92.29,6.04-15.64-7.42-6.4c-1.92-1.66-2.88-4.17-2.56-6.69,1.03-7.88.82-15.88-.61-23.7-.46-2.5.37-5.06,2.2-6.81l7.19-6.9-6.74-15.41-9.93.73c-2.59.19-5.09-.96-6.63-3.04-4.68-6.33-10.42-11.8-16.97-16.16-2.17-1.45-3.44-3.91-3.36-6.51l.3-9.92-15.64-6.04-6.41,7.42c-1.66,1.93-4.17,2.89-6.69,2.56ZM601.66,658.56c0,32.73-26.53,59.26-59.26,59.26s-59.26-26.53-59.26-59.26,26.53-59.26,59.26-59.26c32.71.04,59.22,26.54,59.26,59.26Z"/>
              <path class="cls-11" d="M542.4,702.71c-24.39,0-44.15-19.77-44.15-44.15s19.77-44.15,44.15-44.15,44.15,19.77,44.15,44.15-19.77,44.15-44.15,44.15Z"/>
              <path class="cls-11" d="M464.05,475.41c0-4.17-3.38-7.55-7.55-7.55s-7.55,3.38-7.55,7.55v50.98h-30.21c-4.17,0-7.55,3.38-7.55,7.55v84.02h-14.16v-30.32c.02-1.98-.76-3.88-2.16-5.28-1.4-1.4-3.3-2.18-5.28-2.16h-20.01c-1.28-4.08-3.5-7.81-6.48-10.87-10.13-10.09-26.53-10.07-36.63.05-10.1,10.12-10.1,26.52,0,36.63,10.11,10.12,26.5,10.15,36.63.05,2.98-3.02,5.2-6.71,6.48-10.76h12.35v29.86c.02,4.26,3.41,7.75,7.67,7.9h21.6v17.94h-45.76c-3.74-12.32-15.95-20.05-28.69-18.16-12.74,1.89-22.18,12.83-22.18,25.71s9.44,23.82,22.18,25.71c12.74,1.9,24.95-5.83,28.69-18.16h45.76v17.94h-21.6c-4.26.15-7.64,3.64-7.67,7.9v29.86h-12.35c-1.28-4.05-3.5-7.74-6.48-10.76-7.44-7.47-18.64-9.72-28.38-5.69-9.74,4.02-16.09,13.52-16.09,24.06s6.35,20.04,16.09,24.06c9.74,4.02,20.95,1.78,28.38-5.69,2.98-3.06,5.2-6.79,6.48-10.87h20.01c1.98.02,3.88-.76,5.28-2.15,1.4-1.4,2.18-3.3,2.16-5.28v-30.32h14.16v83.08c0,4.17,3.38,7.55,7.55,7.55h30.21v51.92c0,4.17,3.38,7.55,7.55,7.55s7.55-3.38,7.55-7.55v-51.92h41.54v51.92c0,4.17,3.38,7.55,7.55,7.55s7.55-3.38,7.55-7.55v-51.92h41.54v51.92c0,4.17,3.38,7.55,7.55,7.55s7.55-3.38,7.55-7.55v-51.92h41.54v51.92c0,4.17,3.38,7.55,7.55,7.55s7.55-3.38,7.55-7.55v-51.92h33.04c4.17,0,7.55-3.38,7.55-7.55v-83.08h13.22v30.32c-.02,1.98.76,3.88,2.15,5.28,1.4,1.4,3.3,2.18,5.28,2.15h20.02c1.27,4.09,3.49,7.81,6.48,10.88,10.13,10.09,26.53,10.07,36.63-.05,10.1-10.12,10.1-26.52,0-36.63-10.1-10.12-26.5-10.15-36.63-.05-2.98,3.02-5.2,6.71-6.47,10.76h-12.35v-29.86c-.03-4.26-3.41-7.74-7.67-7.9h-20.65v-17.94h44.81c3.74,12.33,15.95,20.06,28.69,18.16,12.74-1.89,22.18-12.83,22.18-25.71s-9.44-23.82-22.18-25.71c-12.74-1.89-24.95,5.84-28.69,18.16h-44.81v-17.94h20.65c4.26-.15,7.64-3.63,7.67-7.9v-29.87h12.35c1.28,4.05,3.5,7.74,6.48,10.76,7.44,7.47,18.64,9.71,28.38,5.69,9.74-4.02,16.09-13.52,16.09-24.06s-6.35-20.04-16.09-24.06c-9.74-4.02-20.95-1.78-28.38,5.69-2.98,3.06-5.2,6.79-6.48,10.87h-20.02c-1.98-.02-3.88.76-5.28,2.16-1.4,1.4-2.18,3.3-2.15,5.28v30.32h-13.22v-84.02c0-4.17-3.38-7.55-7.55-7.55h-33.04v-50.98c0-4.17-3.38-7.55-7.55-7.55s-7.55,3.38-7.55,7.55v50.98h-41.54v-50.98c0-4.17-3.38-7.55-7.55-7.55s-7.55,3.38-7.55,7.55v50.98h-41.54v-50.98c0-4.17-3.38-7.55-7.55-7.55s-7.55,3.38-7.55,7.55v50.98h-41.54v-50.98ZM566.22,559.05l25.58,9.88c2.99,1.15,4.93,4.06,4.83,7.27l-.33,11.2c5.44,4.04,10.36,8.73,14.66,13.96l11.23-.83c3.19-.24,6.19,1.57,7.48,4.51l11,25.14c1.27,2.9.59,6.28-1.69,8.48l-8.14,7.81c.91,6.69,1.09,13.46.52,20.19l8.45,7.29c2.42,2.09,3.26,5.46,2.11,8.44l-9.88,25.58c-1.15,2.99-4.06,4.92-7.27,4.83l-11.2-.33c-4.04,5.44-8.73,10.36-13.96,14.66l.83,11.24c.24,3.19-1.57,6.19-4.51,7.47l-25.14,11c-2.9,1.27-6.28.59-8.48-1.69l-7.81-8.15c-6.69.92-13.46,1.09-20.19.52l-7.29,8.45c-2.08,2.42-5.46,3.26-8.44,2.11l-25.58-9.87c-3-1.14-4.94-4.06-4.83-7.27l.33-11.2c-5.44-4.04-10.36-8.73-14.66-13.96l-11.23.83c-3.2.24-6.19-1.57-7.48-4.5l-10.99-25.14c-1.27-2.9-.59-6.28,1.69-8.48l8.15-7.81c-.92-6.69-1.1-13.46-.52-20.18l-8.45-7.29c-2.42-2.08-3.26-5.46-2.11-8.44l9.88-25.59c1.15-2.99,4.07-4.92,7.27-4.83l11.2.33c4.04-5.44,8.73-10.36,13.96-14.66l-.83-11.24c-.24-3.19,1.57-6.19,4.51-7.47l25.14-11c2.9-1.27,6.28-.59,8.48,1.69l7.81,8.15c6.69-.92,13.46-1.09,20.19-.52l7.29-8.45c2.08-2.42,5.46-3.26,8.44-2.12Z"/>
            </g>
          </g>
        </g>
      </g>
    </g>
  </g>
</svg>