<?xml version="1.0" encoding="UTF-8"?>
<svg xmlns="http://www.w3.org/2000/svg" xmlns:xlink="http://www.w3.org/1999/xlink" viewBox="0 0 1801.9 871.32">
  <defs>
    <style>
      .cls-1 {
        fill: none;
      }

      .cls-2, .cls-3 {
        fill: #353e8e;
      }

      .cls-4 {
        fill: url(#linear-gradient-2);
      }

      .cls-5 {
        fill: url(#radial-gradient);
      }

      .cls-6 {
        fill: url(#linear-gradient);
      }

      .cls-7 {
        isolation: isolate;
      }

      .cls-8 {
        fill: url(#Degradado_sin_nombre_8162);
      }

      .cls-9 {
        fill: url(#linear-gradient-3);
        mix-blend-mode: overlay;
      }

      .cls-10 {
        fill: #fff;
      }

      .cls-3 {
        opacity: .75;
      }

      .cls-11 {
        fill: #95d2ec;
      }

      .cls-12 {
        opacity: .35;
      }

      .cls-13 {
        clip-path: url(#clippath);
      }
    </style>
    <clipPath id="clippath">
      <rect class="cls-11" x="249.35" y="285.61" width="1400.47" height="300.1" transform="translate(1899.18 871.32) rotate(180)"/>
    </clipPath>
    <radialGradient id="radial-gradient" cx="-19656.22" cy="5001.02" fx="-19656.22" fy="5001.02" r="486.7" gradientTransform="translate(19056.63 447) rotate(14.55) scale(.88 .91) skewX(1.22)" gradientUnits="userSpaceOnUse">
      <stop offset="0" stop-color="#58a4d9"/>
      <stop offset=".09" stop-color="#4497d9"/>
      <stop offset=".55" stop-color="#3c6cb5"/>
      <stop offset="1" stop-color="#353e8e"/>
    </radialGradient>
    <linearGradient id="linear-gradient" x1="-19064.47" y1="4567.96" x2="-18229.52" y2="4567.96" gradientTransform="translate(20467.08 514.81) rotate(13.95)" gradientUnits="userSpaceOnUse">
      <stop offset="0" stop-color="#f4dfc0"/>
      <stop offset=".3" stop-color="#da9435"/>
      <stop offset=".55" stop-color="#da9536"/>
      <stop offset=".64" stop-color="#db993d"/>
      <stop offset=".7" stop-color="#dca049"/>
      <stop offset=".75" stop-color="#dfaa5a"/>
      <stop offset=".8" stop-color="#e2b770"/>
      <stop offset=".82" stop-color="#e4be7b"/>
      <stop offset="1" stop-color="#fff"/>
    </linearGradient>
    <linearGradient id="linear-gradient-2" x1="-17985.74" y1="6984.27" x2="-17094.12" y2="6984.27" gradientTransform="translate(20391.4 610.93) rotate(11.56) scale(1.04 .55) skewX(-5.67)" xlink:href="#linear-gradient"/>
    <linearGradient id="linear-gradient-3" x1="-20608.76" y1="4423.09" x2="-19432.77" y2="4423.09" gradientTransform="translate(20767.29 681.05) rotate(12.78) scale(.95 .91) skewX(-2.3)" gradientUnits="userSpaceOnUse">
      <stop offset="0" stop-color="#fff"/>
      <stop offset=".01" stop-color="#e2e4ef"/>
      <stop offset=".03" stop-color="#aeb1d1"/>
      <stop offset=".05" stop-color="#8288b9"/>
      <stop offset=".07" stop-color="#6067a6"/>
      <stop offset=".09" stop-color="#485099"/>
      <stop offset=".11" stop-color="#3a4290"/>
      <stop offset=".12" stop-color="#353e8e"/>
      <stop offset=".48" stop-color="#353e8e"/>
      <stop offset=".9" stop-color="#65a1d5"/>
    </linearGradient>
    <linearGradient id="Degradado_sin_nombre_8162" data-name="Degradado sin nombre 8162" x1="-1646.92" y1="419.39" x2="-819.2" y2="419.39" gradientTransform="translate(2253.62)" gradientUnits="userSpaceOnUse">
      <stop offset=".12" stop-color="#95d2ec"/>
      <stop offset=".27" stop-color="#95d2ec" stop-opacity=".99"/>
      <stop offset=".39" stop-color="#95d2ec" stop-opacity=".94"/>
      <stop offset=".5" stop-color="#95d2ec" stop-opacity=".87"/>
      <stop offset=".6" stop-color="#95d2ec" stop-opacity=".77"/>
      <stop offset=".7" stop-color="#95d2ec" stop-opacity=".64"/>
      <stop offset=".79" stop-color="#95d2ec" stop-opacity=".48"/>
      <stop offset=".88" stop-color="#95d2ec" stop-opacity=".29"/>
      <stop offset=".97" stop-color="#95d2ec" stop-opacity=".08"/>
      <stop offset="1" stop-color="#95d2ec" stop-opacity="0"/>
    </linearGradient>
  </defs>
  <g class="cls-7">
    <g id="Capa_2" data-name="Capa 2">
      <g id="Capa_1-2" data-name="Capa 1">
        <g>
          <rect class="cls-11" x="249.35" y="285.61" width="1400.47" height="300.1" transform="translate(1899.18 871.32) rotate(180)"/>
          <g class="cls-13">
            <image width="1500" height="1001" transform="translate(788.22 159.93) scale(.58)" xlink:href="../../../../../Downloads/3920.jpg"/>
            <rect class="cls-1" y="204.13" width="1640.92" height="410.23" transform="translate(1640.92 818.5) rotate(180)"/>
            <g>
              <path class="cls-5" d="M1719.61,211.54s-31.77,322.36-233.04,473.39c-120.55,90.45-297.76,21.88-635.51-32.9-20.98-3.4-16.33,175.54-12.55,217.9l860.71-6.39,20.4-652Z"/>
              <path class="cls-6" d="M1334.09,557.59c-290.26,44.11-464.25,4.92-560.45,156.66,797.41,490.29,1001.1-569.88,1001.1-569.88-51.84,178.82-170.78,372.23-440.65,413.23Z"/>
              <path class="cls-4" d="M1127.72,635.53c-300.51,1.2-558.94,1.51-653.27,78.13,849.06,336.63,1096.17-272.43,1096.17-272.43-47.1,95.24-163.5,193.2-442.91,194.3Z"/>
              <path class="cls-3" d="M1098.61,689.85c-321.88-43.58-539.28-44.44-662.28,49,1105.83,350.55,1192.16-255.28,1192.16-255.28-77.83,126.72-230.61,246.82-529.88,206.28Z"/>
              <path class="cls-9" d="M1801.9,32.82h0l-1.24-32.82c-1.29,67.9-31.55,271.1-322.03,479.18-226.59,162.3-797.7,228.22-1012.54,264.45l484.6,117.79c746.88-123.39,851.25-725.96,851.22-828.59Z"/>
              <path class="cls-2" d="M421.75,725.04v146.28h1281.55l8.16-414.75s-107.26,534.3-1289.7,268.47Z"/>
            </g>
            <rect class="cls-8" x="606.7" y="214.27" width="827.72" height="410.23"/>
            <g class="cls-12">
              <g>
                <path class="cls-10" d="M542.15,595.41c-40.72-5.93-77.31-27.05-103.04-59.45-2.96-3.73-8.38-4.35-12.1-1.39-3.73,2.96-4.35,8.38-1.39,12.1,28.47,35.86,68.97,59.23,114.05,65.79.42.06.84.09,1.25.09,4.21,0,7.89-3.09,8.51-7.37.69-4.71-2.57-9.08-7.28-9.77h0Z"/>
                <path class="cls-10" d="M704.26,534.57c-3.73-2.96-9.14-2.34-12.1,1.39-25.73,32.41-62.32,53.52-103.04,59.45-4.71.69-7.97,5.06-7.28,9.77.62,4.29,4.31,7.37,8.51,7.37.41,0,.83-.03,1.25-.09,45.08-6.57,85.58-29.93,114.05-65.79,2.96-3.73,2.34-9.14-1.39-12.1h0Z"/>
                <path class="cls-10" d="M731.57,369.28c-1.77-4.42-6.78-6.56-11.2-4.79-4.42,1.77-6.56,6.78-4.79,11.2,7.63,19.07,11.5,39.25,11.5,59.98s-3.86,40.83-11.46,59.87c-1.77,4.42.39,9.43,4.8,11.19,1.05.42,2.13.62,3.19.62,3.42,0,6.66-2.05,8-5.42,8.42-21.08,12.69-43.37,12.69-66.26s-4.29-45.27-12.74-66.38Z"/>
                <path class="cls-10" d="M589,275.89c40.59,5.88,77.11,26.87,102.85,59.09,1.7,2.13,4.21,3.24,6.74,3.24,1.88,0,3.78-.62,5.37-1.88,3.72-2.97,4.32-8.39,1.35-12.11-28.48-35.66-68.91-58.88-113.84-65.39-4.71-.68-9.08,2.58-9.76,7.29-.68,4.71,2.58,9.08,7.29,9.76h0Z"/>
                <path class="cls-10" d="M539.79,258.84c-44.94,6.51-85.37,29.74-113.85,65.41-2.97,3.72-2.36,9.14,1.36,12.11,1.59,1.27,3.48,1.88,5.37,1.88,2.53,0,5.04-1.11,6.74-3.24,25.74-32.23,62.27-53.22,102.86-59.11,4.71-.68,7.97-5.05,7.29-9.76-.68-4.71-5.05-7.97-9.76-7.29Z"/>
                <path class="cls-10" d="M410.9,364.49c-4.42-1.77-9.43.38-11.2,4.8-8.45,21.11-12.74,43.45-12.74,66.38s4.27,45.18,12.69,66.26c1.35,3.37,4.58,5.42,8,5.42,1.06,0,2.15-.2,3.19-.62,4.42-1.77,6.57-6.78,4.8-11.19-7.61-19.04-11.46-39.18-11.46-59.87s3.87-40.91,11.5-59.98c1.77-4.42-.38-9.43-4.8-11.2Z"/>
              </g>
              <path class="cls-10" d="M727.8,493.19c-12.34-7.12-27.56-4.84-37.34,4.59l-16.85-9.73c7.72-15.84,12.05-33.62,12.05-52.39s-4.34-36.55-12.05-52.39l16.85-9.73c5.89,5.68,13.75,8.77,21.76,8.77,5.3,0,10.67-1.35,15.58-4.18,14.93-8.62,20.06-27.77,11.44-42.7-4.17-7.23-10.92-12.4-18.98-14.56-8.07-2.16-16.49-1.05-23.72,3.12-7.23,4.17-12.4,10.92-14.56,18.98-1.4,5.21-1.42,10.57-.14,15.66l-16.86,9.74c-20.1-29.57-53.03-49.73-90.73-52.42v-19.45c13.06-3.75,22.64-15.79,22.64-30.04,0-17.24-14.02-31.26-31.26-31.26s-31.26,14.02-31.26,31.26c0,14.25,9.59,26.29,22.64,30.04v19.45c-37.69,2.69-70.63,22.85-90.73,52.42l-16.86-9.74c1.28-5.09,1.25-10.45-.14-15.66-2.16-8.06-7.33-14.81-14.56-18.98-7.23-4.17-15.65-5.28-23.72-3.12-8.06,2.16-14.81,7.33-18.98,14.56-8.62,14.93-3.49,34.08,11.44,42.7,4.91,2.84,10.28,4.18,15.58,4.18,8.02,0,15.88-3.09,21.76-8.77l16.85,9.73c-7.72,15.84-12.05,33.62-12.05,52.39s4.34,36.55,12.05,52.39l-16.85,9.73c-9.78-9.43-25-11.71-37.34-4.59-14.93,8.62-20.06,27.77-11.44,42.7,4.17,7.23,10.92,12.4,18.98,14.56,2.69.72,5.43,1.08,8.14,1.08,5.42,0,10.76-1.42,15.58-4.2,7.23-4.17,12.4-10.92,14.56-18.98,1.4-5.21,1.42-10.57.14-15.66l16.86-9.74c20.1,29.57,53.03,49.73,90.73,52.42v19.45c-13.06,3.75-22.64,15.79-22.64,30.04,0,17.24,14.02,31.26,31.26,31.26s31.26-14.02,31.26-31.26c0-14.25-9.59-26.29-22.64-30.04v-19.45c37.69-2.69,70.63-22.85,90.73-52.42l16.86,9.74c-1.28,5.09-1.25,10.45.14,15.66,2.16,8.06,7.33,14.81,14.56,18.98,4.82,2.78,10.16,4.2,15.58,4.2,2.71,0,5.45-.36,8.14-1.08,8.06-2.16,14.81-7.33,18.98-14.56,8.62-14.93,3.48-34.08-11.44-42.7h0ZM698.62,347.43c.97-3.62,3.29-6.65,6.54-8.52,2.2-1.27,4.61-1.88,6.99-1.88,4.85,0,9.58,2.52,12.17,7.01,3.87,6.7,1.56,15.3-5.14,19.17-6.7,3.87-15.3,1.56-19.17-5.14-1.87-3.25-2.37-7.03-1.4-10.65h0ZM412.08,363.21c-6.7-3.87-9-12.47-5.14-19.17,2.6-4.5,7.32-7.01,12.17-7.01,2.38,0,4.79.6,6.99,1.88,3.25,1.87,5.57,4.9,6.54,8.52.97,3.62.47,7.4-1.4,10.65-3.87,6.7-12.47,9-19.17,5.14ZM432.65,523.9c-.97,3.62-3.29,6.65-6.54,8.52-6.7,3.87-15.3,1.56-19.17-5.14-3.87-6.7-1.56-15.3,5.14-19.17,2.2-1.27,4.61-1.88,6.99-1.88,4.85,0,9.58,2.52,12.17,7.01,1.87,3.25,2.37,7.03,1.4,10.65h0ZM551.61,266.45c0-7.74,6.29-14.03,14.03-14.03s14.03,6.29,14.03,14.03-6.29,14.03-14.03,14.03-14.03-6.29-14.03-14.03ZM579.67,604.87c0,7.74-6.29,14.03-14.03,14.03s-14.03-6.29-14.03-14.03,6.29-14.03,14.03-14.03,14.03,6.29,14.03,14.03ZM637.17,509.42c-7.1-18.81-21.36-33.89-39.17-42.26,15.22-10.38,25.23-27.85,25.23-47.62,0-31.76-25.84-57.6-57.6-57.6s-57.6,25.84-57.6,57.6c0,19.77,10.01,37.24,25.23,47.62-17.81,8.37-32.07,23.45-39.17,42.26-19.27-18.7-31.27-44.85-31.27-73.76,0-56.69,46.12-102.8,102.8-102.8s102.8,46.12,102.8,102.8c0,28.91-12,55.06-31.27,73.76h0ZM724.32,527.28c-3.87,6.7-12.47,9-19.17,5.14-3.25-1.87-5.57-4.9-6.54-8.52-.97-3.62-.47-7.4,1.4-10.65,2.6-4.5,7.32-7.01,12.17-7.01,2.38,0,4.79.6,6.99,1.88,6.7,3.87,9,12.47,5.14,19.17h0Z"/>
            </g>
          </g>
        </g>
      </g>
    </g>
  </g>
</svg>