<?xml version="1.0" encoding="UTF-8"?>
<svg xmlns="http://www.w3.org/2000/svg" xmlns:xlink="http://www.w3.org/1999/xlink" viewBox="0 0 1801.9 871.32">
  <defs>
    <style>
      .cls-1 {
        fill: none;
      }

      .cls-2, .cls-3 {
        fill: #353e8e;
      }

      .cls-4 {
        fill: url(#linear-gradient-2);
      }

      .cls-5 {
        fill: url(#radial-gradient);
      }

      .cls-6 {
        fill: url(#linear-gradient);
      }

      .cls-7 {
        isolation: isolate;
      }

      .cls-8 {
        fill: url(#Degradado_sin_nombre_8167);
      }

      .cls-9 {
        fill: url(#linear-gradient-3);
        mix-blend-mode: overlay;
      }

      .cls-10 {
        fill: #fff;
      }

      .cls-3 {
        opacity: .75;
      }

      .cls-11 {
        fill: #bdbebf;
      }

      .cls-12 {
        opacity: .35;
      }

      .cls-13 {
        clip-path: url(#clippath);
      }
    </style>
    <clipPath id="clippath">
      <rect class="cls-11" x="249.35" y="285.61" width="1400.47" height="300.1" transform="translate(1899.18 871.32) rotate(180)"/>
    </clipPath>
    <radialGradient id="radial-gradient" cx="-19750.16" cy="5576.14" fx="-19750.16" fy="5576.14" r="486.7" gradientTransform="translate(19257.6 -42.19) rotate(14.55) scale(.88 .91) skewX(1.22)" gradientUnits="userSpaceOnUse">
      <stop offset="0" stop-color="#58a4d9"/>
      <stop offset=".09" stop-color="#4497d9"/>
      <stop offset=".55" stop-color="#3c6cb5"/>
      <stop offset="1" stop-color="#353e8e"/>
    </radialGradient>
    <linearGradient id="linear-gradient" x1="-18893.15" y1="5031.5" x2="-18058.2" y2="5031.5" gradientTransform="translate(20412.57 23.64) rotate(13.95)" gradientUnits="userSpaceOnUse">
      <stop offset="0" stop-color="#f4dfc0"/>
      <stop offset=".3" stop-color="#da9435"/>
      <stop offset=".55" stop-color="#da9536"/>
      <stop offset=".64" stop-color="#db993d"/>
      <stop offset=".7" stop-color="#dca049"/>
      <stop offset=".75" stop-color="#dfaa5a"/>
      <stop offset=".8" stop-color="#e2b770"/>
      <stop offset=".82" stop-color="#e4be7b"/>
      <stop offset="1" stop-color="#fff"/>
    </linearGradient>
    <linearGradient id="linear-gradient-2" x1="-17625" y1="8063.52" x2="-16733.38" y2="8063.52" gradientTransform="translate(20252.27 -26.58) rotate(11.56) scale(1.04 .55) skewX(-5.67)" xlink:href="#linear-gradient"/>
    <linearGradient id="linear-gradient-3" x1="-20511.41" y1="4933.19" x2="-19335.42" y2="4933.19" gradientTransform="translate(20799.19 210.05) rotate(12.78) scale(.95 .91) skewX(-2.3)" gradientUnits="userSpaceOnUse">
      <stop offset="0" stop-color="#fff"/>
      <stop offset=".01" stop-color="#e2e4ef"/>
      <stop offset=".03" stop-color="#aeb1d1"/>
      <stop offset=".05" stop-color="#8288b9"/>
      <stop offset=".07" stop-color="#6067a6"/>
      <stop offset=".09" stop-color="#485099"/>
      <stop offset=".11" stop-color="#3a4290"/>
      <stop offset=".12" stop-color="#353e8e"/>
      <stop offset=".48" stop-color="#353e8e"/>
      <stop offset=".9" stop-color="#65a1d5"/>
    </linearGradient>
    <linearGradient id="Degradado_sin_nombre_8167" data-name="Degradado sin nombre 8167" x1="-1646.92" y1="419.39" x2="-819.2" y2="419.39" gradientTransform="translate(2253.62)" gradientUnits="userSpaceOnUse">
      <stop offset=".12" stop-color="#bdbebf"/>
      <stop offset=".28" stop-color="#bdbebf" stop-opacity=".98"/>
      <stop offset=".41" stop-color="#bdbebf" stop-opacity=".93"/>
      <stop offset=".53" stop-color="#bdbebf" stop-opacity=".84"/>
      <stop offset=".64" stop-color="#bdbebf" stop-opacity=".72"/>
      <stop offset=".75" stop-color="#bdbebf" stop-opacity=".56"/>
      <stop offset=".85" stop-color="#bdbebf" stop-opacity=".36"/>
      <stop offset=".95" stop-color="#bdbebf" stop-opacity=".13"/>
      <stop offset="1" stop-color="#bdbebf" stop-opacity="0"/>
    </linearGradient>
  </defs>
  <g class="cls-7">
    <g id="Capa_2" data-name="Capa 2">
      <g id="Capa_1-2" data-name="Capa 1">
        <g>
          <rect class="cls-11" x="249.35" y="285.61" width="1400.47" height="300.1" transform="translate(1899.18 871.32) rotate(180)"/>
          <g class="cls-13">
            <image width="1500" height="922" transform="translate(818.48 233.41) scale(.61)" xlink:href="../../../../../Downloads/13889.jpg"/>
            <rect class="cls-1" y="204.13" width="1640.92" height="410.23" transform="translate(1640.92 818.5) rotate(180)"/>
            <g>
              <path class="cls-5" d="M1719.61,211.54s-31.77,322.36-233.04,473.39c-120.55,90.45-297.76,21.88-635.51-32.9-20.98-3.4-16.33,175.54-12.55,217.9l860.71-6.39,20.4-652Z"/>
              <path class="cls-6" d="M1334.09,557.59c-290.26,44.11-464.25,4.92-560.45,156.66,797.41,490.29,1001.1-569.88,1001.1-569.88-51.84,178.82-170.78,372.23-440.65,413.23Z"/>
              <path class="cls-4" d="M1127.72,635.53c-300.51,1.2-558.94,1.51-653.27,78.13,849.06,336.63,1096.17-272.43,1096.17-272.43-47.1,95.24-163.5,193.2-442.91,194.3Z"/>
              <path class="cls-3" d="M1098.61,689.85c-321.88-43.58-539.28-44.44-662.28,49,1105.83,350.55,1192.16-255.28,1192.16-255.28-77.83,126.72-230.61,246.82-529.88,206.28Z"/>
              <path class="cls-9" d="M1801.9,32.82h0l-1.24-32.82c-1.29,67.9-31.55,271.1-322.03,479.18-226.59,162.3-797.7,228.22-1012.54,264.45l484.6,117.79c746.88-123.39,851.25-725.96,851.22-828.59Z"/>
              <path class="cls-2" d="M421.75,725.04v146.28h1281.55l8.16-414.75s-107.26,534.3-1289.7,268.47Z"/>
            </g>
            <rect class="cls-8" x="606.7" y="214.27" width="827.72" height="410.23"/>
            <g class="cls-12">
              <path class="cls-10" d="M753.53,565.82c-.94-.3-1.91-.45-2.88-.45-4.22,0-7.9,2.7-9.17,6.73-1.59,5.05,1.23,10.46,6.28,12.06.93.29,1.9.44,2.88.44,4.22,0,7.9-2.7,9.17-6.73,1.59-5.05-1.23-10.46-6.28-12.05h0Z"/>
              <path class="cls-10" d="M792.35,435.66c0-6.45-.79-12.86-2.34-19.07-1.51-6.01-3.74-11.86-6.64-17.36-5.68-10.78-13.93-20.23-23.86-27.35,2.14-6.46,3.23-13.15,3.23-19.93,0-12.86-3.83-25.27-11.07-35.85-7.05-10.31-16.88-18.27-28.41-23.04v-.2c0-13.54-4.21-26.46-12.14-37.36-3.82-5.25-8.41-9.88-13.62-13.75-5.26-3.91-11.08-6.98-17.26-9.11-2.14-6.18-5.22-11.98-9.14-17.24-3.88-5.21-8.52-9.78-13.78-13.59-10.92-7.91-23.87-12.1-37.42-12.11-11.07,0-21.98,2.88-31.54,8.33-9.25,5.27-17.11,12.84-22.74,21.88-5.63-9.04-13.49-16.6-22.74-21.88-9.56-5.45-20.47-8.33-31.54-8.33-13.56,0-26.5,4.2-37.42,12.11-5.26,3.81-9.9,8.39-13.78,13.59-3.92,5.26-6.99,11.06-9.14,17.24-6.19,2.13-12,5.2-17.26,9.11-5.22,3.87-9.8,8.5-13.62,13.75-7.94,10.9-12.13,23.93-12.14,37.46-11.53,4.77-21.36,12.83-28.41,23.14-7.23,10.58-11.06,22.98-11.07,35.85,0,6.77,1.09,13.47,3.23,19.93-9.92,7.12-18.18,16.57-23.86,27.35-2.9,5.51-5.13,11.35-6.64,17.36-1.56,6.21-2.34,12.62-2.34,19.07,0,9.17,1.58,18.17,4.7,26.74,3.01,8.25,7.36,15.91,12.93,22.75-1.87,4.65-2.82,9.54-2.82,14.52,0,7.07,1.91,14,5.51,20.02,3.5,5.84,8.47,10.69,14.4,14.05-3.39,7.94-5.11,16.35-5.11,25.02,0,11.95,3.33,23.61,9.65,33.69,6.13,9.8,14.8,17.77,25.08,23.04,7.63,18.69,19.29,34.68,33.71,46.28,7.85,6.3,16.42,11.21,25.48,14.57,9.42,3.5,19.22,5.27,29.14,5.27h.1c16.81,0,33.39-5.16,47.94-14.93,9.84-6.6,18.6-15.09,26.04-25.27,7.44,10.17,16.2,18.67,26.04,25.27,14.56,9.77,31.13,14.93,47.94,14.93h.1c9.92,0,19.72-1.78,29.14-5.27,9.07-3.36,17.64-8.27,25.48-14.57,14.43-11.6,26.08-27.6,33.71-46.29,2.19-1.2,3.8-3.18,4.54-5.56.74-2.4.53-4.96-.61-7.2-1.64-3.25-4.94-5.26-8.58-5.26-1.52,0-2.97.35-4.33,1.04-.78.39-1.59.78-2.41,1.13-2.38,1.03-4.27,3.02-5.18,5.46-6.36,17.07-16.46,31.49-29.18,41.7-12.75,10.21-27.5,15.61-42.64,15.62-13.17,0-25.72-3.94-37.3-11.67-10.69-7.16-20.03-17.42-27.12-29.75v-98.85h38.43v20.87c-11.18,3.97-19.22,14.64-19.22,27.17,0,15.89,12.93,28.82,28.82,28.82s28.82-12.93,28.82-28.82c0-12.52-8.03-23.2-19.22-27.17v-20.87h14.41c5.31,0,9.61-4.3,9.61-9.61v-96.08h38.43v40.08c-11.18,3.97-19.22,14.64-19.22,27.17,0,15.89,12.93,28.82,28.82,28.82s28.82-12.93,28.82-28.82c0-12.52-8.03-23.2-19.22-27.17v-49.69c0-5.31-4.3-9.61-9.61-9.61h-48.04v-38.43c0-5.31-4.3-9.61-9.61-9.61h-14.41v-42.97c11.18-3.97,19.22-14.64,19.22-27.17,0-15.89-12.93-28.82-28.82-28.82s-28.82,12.93-28.82,28.82c0,12.52,8.03,23.2,19.22,27.17v42.97h-38.43v-95.6c0-11.89,4.65-23.11,13.09-31.57,8.45-8.45,19.68-13.1,31.59-13.1h.04c20.49,0,38.29,13.89,43.25,33.77.86,3.46,3.55,6.14,7,7,19.95,4.97,33.88,22.72,33.86,43.17,0,.66-.03,1.36-.07,2.08l-10.06,8.48c-4.06,3.42-4.57,9.48-1.15,13.54,1.9,2.25,4.62,3.41,7.35,3.41,2.19,0,4.39-.74,6.19-2.26l8.94-7.54c16.88,6.66,28.29,23.04,28.27,41.38,0,6.75-1.54,13.32-4.55,19.48-2.23,4.56-.52,10.1,3.91,12.6,18.67,10.56,30.25,30.34,30.25,51.63,0,15.48-5.99,30.15-16.85,41.31-3.15,3.24-3.63,8.14-1.18,11.93,2.14,3.31,3.23,6.93,3.23,10.76.02,9.51-6.78,17.73-16.18,19.55-3.17.61-5.81,2.75-7.05,5.74s-.91,6.37.89,9.05c.8,1.19,1.54,2.42,2.21,3.66,1.68,3.1,4.92,5.03,8.45,5.03,1.59,0,3.16-.4,4.56-1.16,2.68-1.45,4.48-4.01,4.93-7.01,6.33-3.23,11.67-8.11,15.45-14.13,3.88-6.2,5.94-13.35,5.95-20.72,0-4.98-.95-9.87-2.82-14.52,5.57-6.84,9.92-14.5,12.93-22.75,3.12-8.57,4.7-17.57,4.7-26.74h0ZM704.92,474.09c5.3,0,9.61,4.31,9.61,9.61s-4.31,9.61-9.61,9.61-9.61-4.31-9.61-9.61,4.31-9.61,9.61-9.61ZM556,620.98c-7.1,12.33-16.43,22.59-27.12,29.75-11.58,7.73-24.12,11.66-37.3,11.67-15.14,0-29.89-5.41-42.64-15.62-11.2-8.98-20.36-21.23-26.73-35.67l6.63-5.9c3.96-3.53,4.32-9.6.79-13.56-3.53-3.96-9.6-4.32-13.56-.79l-6.78,6.03c-13.29-8.01-21.6-22.4-21.59-38.13,0-8.85,2.6-17.4,7.53-24.75,1.81-2.68,2.13-6.07.89-9.05-1.24-2.99-3.88-5.13-7.05-5.74-9.4-1.83-16.2-10.04-16.18-19.55,0-3.83,1.09-7.46,3.23-10.76,2.45-3.8,1.97-8.69-1.18-11.93-10.87-11.16-16.84-25.83-16.85-41.31,0-21.29,11.59-41.07,30.25-51.63,4.43-2.5,6.14-8.03,3.91-12.6-3.02-6.18-4.55-12.73-4.55-19.48-.02-18.37,11.42-34.77,28.34-41.41l20.97,17.25c1.79,1.47,3.95,2.19,6.1,2.19,2.77,0,5.53-1.2,7.43-3.5,3.37-4.1,2.78-10.15-1.32-13.52l-21.98-18.07c-.34-24.83,13.84-40.21,33.79-45.18,3.46-.86,6.14-3.55,7-7,4.97-19.88,22.75-33.77,43.25-33.77h.04c11.91,0,23.14,4.66,31.59,13.1,8.44,8.46,13.09,19.68,13.09,31.57v95.6h-38.43v-20.87c11.18-3.97,19.22-14.64,19.22-27.17,0-15.89-12.93-28.82-28.82-28.82s-28.82,12.93-28.82,28.82c0,12.52,8.03,23.2,19.22,27.17v20.87h-14.41c-5.31,0-9.61,4.3-9.61,9.61v28.82h-48.04c-5.31,0-9.61,4.3-9.61,9.61s4.3,9.61,9.61,9.61h48.04v69.17h-20.87c-3.97-11.18-14.64-19.22-27.17-19.22-15.89,0-28.82,12.93-28.82,28.82s12.93,28.82,28.82,28.82c12.52,0,23.2-8.03,27.17-19.22h20.87v17.29c0,5.31,4.3,9.61,9.61,9.61h14.41v42.97c-11.18,3.97-19.22,14.64-19.22,27.17,0,15.89,12.93,28.82,28.82,28.82s28.82-12.93,28.82-28.82c0-12.52-8.03-23.2-19.22-27.17v-42.97h38.43v98.85ZM507.96,310.76c-5.3,0-9.61-4.31-9.61-9.61s4.31-9.61,9.61-9.61,9.61,4.31,9.61,9.61-4.31,9.61-9.61,9.61ZM435.91,485.62c0,5.3-4.31,9.61-9.61,9.61s-9.61-4.31-9.61-9.61,4.31-9.61,9.61-9.61,9.61,4.31,9.61,9.61ZM507.96,582.66c5.3,0,9.61,4.31,9.61,9.61s-4.31,9.61-9.61,9.61-9.61-4.31-9.61-9.61,4.31-9.61,9.61-9.61ZM623.25,579.77c-5.3,0-9.61-4.31-9.61-9.61s4.31-9.61,9.61-9.61,9.61,4.31,9.61,9.61-4.31,9.61-9.61,9.61ZM623.25,269.45c5.3,0,9.61,4.31,9.61,9.61s-4.31,9.61-9.61,9.61-9.61-4.31-9.61-9.61,4.31-9.61,9.61-9.61ZM637.66,368.41v134.51h-144.11v-134.51h144.11Z"/>
              <path class="cls-10" d="M556.91,395.34c-1.5-4.61-5.69-7.71-10.41-7.71h0c-4.73,0-8.91,3.11-10.41,7.73-.02.06-22.91,75.97-22.91,75.97-1.53,5.08,1.35,10.44,6.43,11.97.92.28,1.86.41,2.78.41,4.13,0,7.94-2.68,9.19-6.84l3.63-12.04h22.41l3.59,12.02c1.52,5.08,6.87,7.98,11.96,6.46,5.08-1.52,7.97-6.87,6.46-11.96,0,0-22.69-75.93-22.71-76.01h0ZM541,445.61l5.47-18.13,5.42,18.13h-10.88Z"/>
              <circle class="cls-10" cx="608.84" cy="397.23" r="9.61"/>
              <path class="cls-10" d="M608.84,430.86c-5.29,0-9.61,4.31-9.61,9.61v33.63c0,5.29,4.31,9.61,9.61,9.61s9.61-4.31,9.61-9.61v-33.63c0-5.29-4.31-9.61-9.61-9.61Z"/>
            </g>
          </g>
        </g>
      </g>
    </g>
  </g>
</svg>