<?xml version="1.0" encoding="UTF-8"?>
<svg xmlns="http://www.w3.org/2000/svg" xmlns:xlink="http://www.w3.org/1999/xlink" viewBox="0 0 1801.9 871.32">
  <defs>
    <style>
      .cls-1 {
        fill: none;
      }

      .cls-2, .cls-3 {
        fill: #353e8e;
      }

      .cls-4 {
        fill: url(#linear-gradient-2);
      }

      .cls-5 {
        fill: url(#radial-gradient);
      }

      .cls-6 {
        fill: url(#linear-gradient);
      }

      .cls-7 {
        isolation: isolate;
      }

      .cls-8 {
        fill: url(#Degradado_sin_nombre_8172);
      }

      .cls-9 {
        fill: url(#linear-gradient-3);
        mix-blend-mode: overlay;
      }

      .cls-3 {
        opacity: .75;
      }

      .cls-10 {
        fill: #bdbebf;
      }

      .cls-11 {
        fill: #fff;
        fill-rule: evenodd;
        opacity: .35;
      }

      .cls-12 {
        clip-path: url(#clippath);
      }
    </style>
    <clipPath id="clippath">
      <rect class="cls-10" x="249.35" y="285.61" width="1400.47" height="300.1" transform="translate(1899.18 871.32) rotate(180)"/>
    </clipPath>
    <radialGradient id="radial-gradient" cx="-19355.36" cy="5072.15" fx="-19355.36" fy="5072.15" r="486.7" gradientTransform="translate(18816.3 317.68) rotate(14.55) scale(.88 .91) skewX(1.22)" gradientUnits="userSpaceOnUse">
      <stop offset="0" stop-color="#58a4d9"/>
      <stop offset=".09" stop-color="#4497d9"/>
      <stop offset=".55" stop-color="#3c6cb5"/>
      <stop offset="1" stop-color="#353e8e"/>
    </radialGradient>
    <linearGradient id="linear-gradient" x1="-18789.62" y1="4534.34" x2="-17954.68" y2="4534.34" gradientTransform="translate(20192.24 481.19) rotate(13.95)" gradientUnits="userSpaceOnUse">
      <stop offset="0" stop-color="#f4dfc0"/>
      <stop offset=".3" stop-color="#da9435"/>
      <stop offset=".55" stop-color="#da9536"/>
      <stop offset=".64" stop-color="#db993d"/>
      <stop offset=".7" stop-color="#dca049"/>
      <stop offset=".75" stop-color="#dfaa5a"/>
      <stop offset=".8" stop-color="#e2b770"/>
      <stop offset=".82" stop-color="#e4be7b"/>
      <stop offset="1" stop-color="#fff"/>
    </linearGradient>
    <linearGradient id="linear-gradient-2" x1="-17565.83" y1="7864.36" x2="-16674.21" y2="7864.36" gradientTransform="translate(20149.67 64.82) rotate(11.56) scale(1.04 .55) skewX(-5.67)" xlink:href="#linear-gradient"/>
    <linearGradient id="linear-gradient-3" x1="-20294.69" y1="4499.05" x2="-19118.7" y2="4499.05" gradientTransform="translate(20494.27 547.93) rotate(12.78) scale(.95 .91) skewX(-2.3)" gradientUnits="userSpaceOnUse">
      <stop offset="0" stop-color="#fff"/>
      <stop offset=".01" stop-color="#e2e4ef"/>
      <stop offset=".03" stop-color="#aeb1d1"/>
      <stop offset=".05" stop-color="#8288b9"/>
      <stop offset=".07" stop-color="#6067a6"/>
      <stop offset=".09" stop-color="#485099"/>
      <stop offset=".11" stop-color="#3a4290"/>
      <stop offset=".12" stop-color="#353e8e"/>
      <stop offset=".48" stop-color="#353e8e"/>
      <stop offset=".9" stop-color="#65a1d5"/>
    </linearGradient>
    <linearGradient id="Degradado_sin_nombre_8172" data-name="Degradado sin nombre 8172" x1="-1646.92" y1="419.39" x2="-819.2" y2="419.39" gradientTransform="translate(2253.62)" gradientUnits="userSpaceOnUse">
      <stop offset=".12" stop-color="#bdbebf"/>
      <stop offset=".28" stop-color="#bdbebf" stop-opacity=".98"/>
      <stop offset=".41" stop-color="#bdbebf" stop-opacity=".93"/>
      <stop offset=".53" stop-color="#bdbebf" stop-opacity=".84"/>
      <stop offset=".64" stop-color="#bdbebf" stop-opacity=".72"/>
      <stop offset=".75" stop-color="#bdbebf" stop-opacity=".56"/>
      <stop offset=".85" stop-color="#bdbebf" stop-opacity=".36"/>
      <stop offset=".95" stop-color="#bdbebf" stop-opacity=".13"/>
      <stop offset="1" stop-color="#bdbebf" stop-opacity="0"/>
    </linearGradient>
  </defs>
  <g class="cls-7">
    <g id="Capa_2" data-name="Capa 2">
      <g id="Capa_1-2" data-name="Capa 1">
        <g>
          <rect class="cls-10" x="249.35" y="285.61" width="1400.47" height="300.1" transform="translate(1899.18 871.32) rotate(180)"/>
          <g class="cls-12">
            <image width="1500" height="1000" transform="translate(680.21 153.49) scale(.66)" xlink:href="../../../../../Downloads/5100.jpg"/>
            <rect class="cls-1" y="204.13" width="1640.92" height="410.23" transform="translate(1640.92 818.5) rotate(180)"/>
            <g>
              <path class="cls-5" d="M1719.61,211.54s-31.77,322.36-233.04,473.39c-120.55,90.45-297.76,21.88-635.51-32.9-20.98-3.4-16.33,175.54-12.55,217.9l860.71-6.39,20.4-652Z"/>
              <path class="cls-6" d="M1334.09,557.59c-290.26,44.11-464.25,4.92-560.45,156.66,797.41,490.29,1001.1-569.88,1001.1-569.88-51.84,178.82-170.78,372.23-440.65,413.23Z"/>
              <path class="cls-4" d="M1127.72,635.53c-300.51,1.2-558.94,1.51-653.27,78.13,849.06,336.63,1096.17-272.43,1096.17-272.43-47.1,95.24-163.5,193.2-442.91,194.3Z"/>
              <path class="cls-3" d="M1098.61,689.85c-321.88-43.58-539.28-44.44-662.28,49,1105.83,350.55,1192.16-255.28,1192.16-255.28-77.83,126.72-230.61,246.82-529.88,206.28Z"/>
              <path class="cls-9" d="M1801.9,32.82h0l-1.24-32.82c-1.29,67.9-31.55,271.1-322.03,479.18-226.59,162.3-797.7,228.22-1012.54,264.45l484.6,117.79c746.88-123.39,851.25-725.96,851.22-828.59Z"/>
              <path class="cls-2" d="M421.75,725.04v146.28h1281.55l8.16-414.75s-107.26,534.3-1289.7,268.47Z"/>
            </g>
            <rect class="cls-8" x="606.7" y="214.27" width="827.72" height="410.23"/>
            <path class="cls-11" d="M712.7,318.47v116.32c0,43.07-19,80.12-53.97,105.26l-91.13,65.5-33.68-24.2c3.65-6.05,6.63-12.48,8.88-19.18l21.49,15.45c2.01,1.45,4.73,1.42,6.71-.07l75.61-54.34c29.51-21.21,45.35-52.05,45.35-88.39v-101.55c0-2.17-1.23-4.15-3.18-5.1-45.64-27.21-83.29-40.82-121.18-40.82s-75.76,13.69-121.59,41.07c-1.71,1.02-2.75,2.87-2.75,4.86l-.02,101.17c-7.02.54-13.96,1.83-20.7,3.87-.03-1.16-.04-2.33-.04-3.5v-116.32c109.99-69.28,180.22-69.28,290.21,0h0ZM450.71,445.48c-47.36,0-85.76,38.4-85.76,85.76s38.4,85.76,85.76,85.76,85.76-38.4,85.76-85.76-38.4-85.76-85.76-85.76h0ZM450.71,465.65c14.25,0,25.81,11.56,25.81,25.81s-11.56,25.81-25.81,25.81-25.81-11.56-25.81-25.81h0c0-14.25,11.56-25.81,25.81-25.81ZM494,572.12h-86.58c-2.34.01-4.25-1.88-4.26-4.22,0-.15,0-.3.02-.45,2.58-26.25,25.96-45.43,52.21-42.85,22.67,2.23,40.61,20.17,42.85,42.85.24,2.33-1.46,4.41-3.79,4.65-.15.02-.3.02-.45.02ZM575.9,450.77c8.74-4.58,12.11-15.39,7.52-24.13-4.58-8.74-15.39-12.11-24.13-7.52s-12.11,15.39-7.52,24.13c1.69,3.21,4.31,5.84,7.52,7.52v13.62c0,4.58,3.72,8.3,8.31,8.3,4.58,0,8.29-3.72,8.3-8.3v-13.62ZM512.89,385.65h7.31v-24.94c.1-26.18,21.41-47.32,47.59-47.22,26.04.1,47.12,21.18,47.22,47.22v24.94h7.31c8.12.03,14.69,6.6,14.72,14.72v89.03c-.02,8.12-6.6,14.7-14.72,14.72h-78.32c4.36,15.07,5.02,30.97,1.94,46.35l21.68,15.58,72.4-52.04c26.61-19.13,40.6-46.45,40.6-79.22v-98.33c-42.79-25.22-78.02-37.83-113.01-37.83s-70.22,12.61-113.01,37.83v97.76c15.3.59,30.24,4.8,43.59,12.29v-46.13c.02-8.12,6.6-14.7,14.72-14.72h0ZM542.72,385.65h49.74v-24.94c-.07-13.74-11.27-24.81-25-24.74-13.63.07-24.67,11.11-24.74,24.74v24.94Z"/>
          </g>
        </g>
      </g>
    </g>
  </g>
</svg>