<?xml version="1.0" encoding="UTF-8"?>
<svg xmlns="http://www.w3.org/2000/svg" xmlns:xlink="http://www.w3.org/1999/xlink" viewBox="0 0 1801.9 920.32">
  <defs>
    <style>
      .cls-1 {
        fill: none;
      }

      .cls-2, .cls-3 {
        fill: #353e8e;
      }

      .cls-4 {
        fill: url(#linear-gradient-2);
      }

      .cls-5 {
        fill: url(#radial-gradient);
      }

      .cls-6 {
        fill: url(#linear-gradient);
      }

      .cls-7 {
        fill: #3472b7;
      }

      .cls-8 {
        isolation: isolate;
      }

      .cls-9 {
        fill: url(#Degradado_sin_nombre_8147);
      }

      .cls-10 {
        fill: url(#linear-gradient-3);
        mix-blend-mode: overlay;
      }

      .cls-11 {
        fill: #fff;
      }

      .cls-3 {
        opacity: .75;
      }

      .cls-12 {
        opacity: .35;
      }

      .cls-13 {
        clip-path: url(#clippath);
      }
    </style>
    <clipPath id="clippath">
      <rect class="cls-7" x="249.35" y="285.61" width="1400.47" height="300.1" transform="translate(1899.18 871.32) rotate(180)"/>
    </clipPath>
    <radialGradient id="radial-gradient" cx="-19532.62" cy="5030.24" fx="-19532.62" fy="5030.24" r="486.7" gradientTransform="translate(18957.9 393.87) rotate(14.55) scale(.88 .91) skewX(1.22)" gradientUnits="userSpaceOnUse">
      <stop offset="0" stop-color="#58a4d9"/>
      <stop offset=".09" stop-color="#4497d9"/>
      <stop offset=".55" stop-color="#3c6cb5"/>
      <stop offset="1" stop-color="#353e8e"/>
    </radialGradient>
    <linearGradient id="linear-gradient" x1="-18951.56" y1="4554.15" x2="-18116.61" y2="4554.15" gradientTransform="translate(20354.17 501) rotate(13.95)" gradientUnits="userSpaceOnUse">
      <stop offset="0" stop-color="#f4dfc0"/>
      <stop offset=".3" stop-color="#da9435"/>
      <stop offset=".55" stop-color="#da9536"/>
      <stop offset=".64" stop-color="#db993d"/>
      <stop offset=".7" stop-color="#dca049"/>
      <stop offset=".75" stop-color="#dfaa5a"/>
      <stop offset=".8" stop-color="#e2b770"/>
      <stop offset=".82" stop-color="#e4be7b"/>
      <stop offset="1" stop-color="#fff"/>
    </linearGradient>
    <linearGradient id="linear-gradient-2" x1="-17813.23" y1="7345.83" x2="-16921.61" y2="7345.83" gradientTransform="translate(20292.09 386.58) rotate(11.56) scale(1.04 .55) skewX(-5.67)" xlink:href="#linear-gradient"/>
    <linearGradient id="linear-gradient-3" x1="-20479.73" y1="4454.3" x2="-19303.74" y2="4454.3" gradientTransform="translate(20655.13 626.36) rotate(12.78) scale(.95 .91) skewX(-2.3)" gradientUnits="userSpaceOnUse">
      <stop offset="0" stop-color="#fff"/>
      <stop offset=".01" stop-color="#e2e4ef"/>
      <stop offset=".03" stop-color="#aeb1d1"/>
      <stop offset=".05" stop-color="#8288b9"/>
      <stop offset=".07" stop-color="#6067a6"/>
      <stop offset=".09" stop-color="#485099"/>
      <stop offset=".11" stop-color="#3a4290"/>
      <stop offset=".12" stop-color="#353e8e"/>
      <stop offset=".48" stop-color="#353e8e"/>
      <stop offset=".9" stop-color="#65a1d5"/>
    </linearGradient>
    <linearGradient id="Degradado_sin_nombre_8147" data-name="Degradado sin nombre 8147" x1="-1646.92" y1="419.39" x2="-819.2" y2="419.39" gradientTransform="translate(2253.62)" gradientUnits="userSpaceOnUse">
      <stop offset=".12" stop-color="#3472b7"/>
      <stop offset=".28" stop-color="#3472b7" stop-opacity=".98"/>
      <stop offset=".42" stop-color="#3472b7" stop-opacity=".93"/>
      <stop offset=".54" stop-color="#3472b7" stop-opacity=".84"/>
      <stop offset=".65" stop-color="#3472b7" stop-opacity=".71"/>
      <stop offset=".76" stop-color="#3472b7" stop-opacity=".54"/>
      <stop offset=".87" stop-color="#3472b7" stop-opacity=".33"/>
      <stop offset=".97" stop-color="#3472b7" stop-opacity=".09"/>
      <stop offset="1" stop-color="#3472b7" stop-opacity="0"/>
    </linearGradient>
  </defs>
  <g class="cls-8">
    <g id="Capa_2" data-name="Capa 2">
      <g id="Capa_1-2" data-name="Capa 1">
        <g>
          <rect class="cls-7" x="249.35" y="285.61" width="1400.47" height="300.1" transform="translate(1899.18 871.32) rotate(180)"/>
          <g class="cls-13">
            <image width="1500" height="1500" transform="translate(815.94 86.44) scale(.56)" xlink:href="../../../../../Downloads/2425.jpg"/>
            <rect class="cls-1" y="204.13" width="1640.92" height="410.23" transform="translate(1640.92 818.5) rotate(180)"/>
            <g>
              <path class="cls-5" d="M1719.61,211.54s-31.77,322.36-233.04,473.39c-120.55,90.45-297.76,21.88-635.51-32.9-20.98-3.4-16.33,175.54-12.55,217.9l860.71-6.39,20.4-652Z"/>
              <path class="cls-6" d="M1334.09,557.59c-290.26,44.11-464.25,4.92-560.45,156.66,797.41,490.29,1001.1-569.88,1001.1-569.88-51.84,178.82-170.78,372.23-440.65,413.23Z"/>
              <path class="cls-4" d="M1127.72,635.53c-300.51,1.2-558.94,1.51-653.27,78.13,849.06,336.63,1096.17-272.43,1096.17-272.43-47.1,95.24-163.5,193.2-442.91,194.3Z"/>
              <path class="cls-3" d="M1098.61,689.85c-321.88-43.58-539.28-44.44-662.28,49,1105.83,350.55,1192.16-255.28,1192.16-255.28-77.83,126.72-230.61,246.82-529.88,206.28Z"/>
              <path class="cls-10" d="M1801.9,32.82h0l-1.24-32.82c-1.29,67.9-31.55,271.1-322.03,479.18-226.59,162.3-797.7,228.22-1012.54,264.45l484.6,117.79c746.88-123.39,851.25-725.96,851.22-828.59Z"/>
              <path class="cls-2" d="M421.75,725.04v146.28h1281.55l8.16-414.75s-107.26,534.3-1289.7,268.47Z"/>
            </g>
            <rect class="cls-9" x="606.7" y="214.27" width="827.72" height="410.23"/>
            <g id="Glyph_Black" data-name="Glyph Black" class="cls-12">
              <g id="Teleworking">
                <path class="cls-11" d="M543.59,538.33h-62.74v-96.97c0-3.15-2.55-5.7-5.7-5.7s-5.7,2.55-5.7,5.7v159.71c0,3.15,2.55,5.7,5.7,5.7s5.7-2.55,5.7-5.7v-51.33h57.04v51.33c0,3.15,2.55,5.7,5.7,5.7s5.7-2.55,5.7-5.7v-57.04c0-3.15-2.55-5.7-5.7-5.7Z"/>
                <rect class="cls-11" x="629.15" y="481.29" width="45.63" height="125.48" rx="5.7" ry="5.7"/>
                <path class="cls-11" d="M634.85,492.7h-39.93c-3.15,0-5.7-2.55-5.7-5.7s2.55-5.7,5.7-5.7h39.93c3.15,0,5.7,2.55,5.7,5.7s-2.55,5.7-5.7,5.7Z"/>
                <path class="cls-11" d="M684.89,392.12c-1.08-1.32-2.7-2.09-4.41-2.09h-79.85c-2.71,0-5.05,1.91-5.59,4.56l-11.41,57.04c-.63,3.09,1.36,6.1,4.45,6.73.38.08.76.12,1.14.12h79.85c2.71,0,5.05-1.91,5.59-4.56l11.41-57.04c.34-1.68-.09-3.43-1.18-4.76Z"/>
                <path class="cls-11" d="M634.85,492.7c-3.15,0-5.7-2.55-5.7-5.7v-34.22c0-3.15,2.55-5.7,5.7-5.7s5.7,2.55,5.7,5.7v34.22c0,3.15-2.55,5.7-5.7,5.7Z"/>
                <path class="cls-11" d="M586.84,520.08c-.09-.23-.19-.46-.31-.67-4.18-8.13-12.02-13.75-21.07-15.08-1.13-.15-2.28-.22-3.42-.22h-18.45v-14.75l1.67,1.67c1.07,1.07,2.52,1.67,4.03,1.67h45.63c12.6,0,22.82-10.21,22.82-22.82,0-2.91-2.19-5.35-5.08-5.67l-49.05-5.45-19.74-23.68c-5.7-6.87-14.17-10.84-23.09-10.84-15.74.02-28.5,12.78-28.52,28.52v68.45c.02,15.74,12.78,28.5,28.52,28.52h36.4l20.64,41.27c4.8,9.69,14.7,15.8,25.51,15.77h8.72c3.15,0,5.7-2.55,5.7-5.7,0-.7-.13-1.4-.38-2.05l-30.52-78.94Z"/>
                <path class="cls-11" d="M526.48,418.55c12.6,0,22.82-10.21,22.82-22.82v-11.41c0-12.6-10.21-22.82-22.82-22.82s-22.82,10.21-22.82,22.82v11.41c0,12.6,10.21,22.82,22.82,22.82Z"/>
                <path class="cls-11" d="M440.92,606.78c-3.15,0-5.7-2.55-5.7-5.7v-210.64c0-3.15,2.55-5.7,5.7-5.7s5.7,2.55,5.7,5.7v210.64c0,3.15-2.55,5.7-5.7,5.7Z"/>
                <path class="cls-11" d="M703.3,606.78c-3.15,0-5.7-2.55-5.7-5.7v-210.64c0-3.15,2.55-5.7,5.7-5.7s5.7,2.55,5.7,5.7v210.64c0,3.15-2.55,5.7-5.7,5.7Z"/>
                <path class="cls-11" d="M740.65,373.86l-165.41-108.37c-1.9-1.25-4.37-1.25-6.27,0l-165.41,108.37c-1.6,1.06-2.56,2.85-2.56,4.77v34.22c0,3.15,2.56,5.7,5.71,5.7,1.11,0,2.19-.32,3.12-.93l162.29-106.3,162.29,106.3c2.64,1.73,6.17.99,7.9-1.65.61-.93.93-2.01.93-3.12v-34.22c0-1.92-.97-3.71-2.58-4.77Z"/>
                <path class="cls-11" d="M726.11,293.07c-1.72,0-3.35-.78-4.44-2.12-12.19-16.45-35.41-19.91-51.86-7.72-2.94,2.18-5.54,4.78-7.72,7.72-2.04,2.4-5.64,2.69-8.04.64-2.31-1.97-2.68-5.41-.82-7.82,16.16-21.35,46.57-25.55,67.92-9.39,3.55,2.68,6.71,5.84,9.39,9.39,1.98,2.45,1.6,6.04-.85,8.02-1.01.82-2.28,1.27-3.58,1.27Z"/>
                <path class="cls-11" d="M711.86,310.18c-1.84,0-3.56-.88-4.64-2.37-4.68-8.47-15.35-11.53-23.81-6.85-2.88,1.59-5.25,3.97-6.85,6.85-1.84,2.56-5.41,3.14-7.97,1.29s-3.14-5.41-1.29-7.97c8.32-13.58,26.08-17.85,39.66-9.53,3.88,2.38,7.15,5.64,9.53,9.53,1.84,2.55,1.27,6.12-1.29,7.96-.97.7-2.14,1.08-3.34,1.08Z"/>
                <path class="cls-11" d="M691.89,321.59c-3.15.01-5.72-2.53-5.73-5.68-.01-3.15,2.53-5.72,5.68-5.73h.05c3.15,0,5.7,2.55,5.7,5.7s-2.55,5.7-5.7,5.7Z"/>
                <path class="cls-11" d="M486.55,293.07c-1.72,0-3.35-.78-4.44-2.12-7.1-9.3-18.08-14.83-29.79-15-11.7.16-22.69,5.69-29.79,15-1.98,2.45-5.57,2.83-8.02.85-2.45-1.98-2.83-5.57-.85-8.02,9.31-11.93,23.52-19,38.65-19.23,15.13.23,29.35,7.3,38.66,19.23,1.98,2.45,1.6,6.04-.85,8.02-1.02.82-2.28,1.27-3.59,1.27Z"/>
                <path class="cls-11" d="M472.29,310.18c-1.83,0-3.56-.88-4.63-2.37-3.33-5.33-9.05-8.7-15.33-9.04-6.28.33-12,3.71-15.33,9.04-1.84,2.56-5.41,3.13-7.97,1.29-2.56-1.84-3.13-5.41-1.29-7.97,5.48-8.3,14.65-13.44,24.59-13.77,9.94.34,19.11,5.47,24.59,13.77,1.84,2.55,1.27,6.12-1.29,7.96-.97.7-2.14,1.08-3.34,1.08Z"/>
                <path class="cls-11" d="M452.33,321.59c-3.15.02-5.72-2.53-5.73-5.68s2.53-5.72,5.68-5.73h.06c3.15,0,5.7,2.55,5.7,5.7s-2.55,5.7-5.7,5.7Z"/>
              </g>
            </g>
          </g>
        </g>
      </g>
    </g>
  </g>
</svg>